<svg width="111" height="111" viewBox="0 0 111 111" fill="none" xmlns="http://www.w3.org/2000/svg">
<path d="M103.23 50.1589L100.355 38.6611C101.141 38.4941 101.731 37.7969 101.731 36.9616V35.1078C101.731 31.0827 98.4559 27.8082 94.4311 27.8082H81.3383V23.9843C81.3383 22.0037 79.7271 20.3925 77.7464 20.3925H11.0072C9.02656 20.3925 7.41532 22.0037 7.41532 23.9843V55.5001C7.41532 56.4599 8.1934 57.2382 9.15338 57.2382C10.1131 57.2382 10.8914 56.4601 10.8914 55.5001V23.9843C10.8914 23.9204 10.9433 23.8686 11.0072 23.8686H77.7462C77.8101 23.8686 77.8619 23.9204 77.8619 23.9843V55.5005C77.8619 56.4603 78.64 57.2386 79.6 57.2386C80.5598 57.2386 81.3381 56.4605 81.3381 55.5005V53.5303H101.84C101.842 53.5303 101.843 53.5307 101.845 53.5307C101.847 53.5307 101.848 53.5305 101.85 53.5305C104.373 53.5322 106.515 55.1881 107.25 57.4699H101.846C100.886 57.4699 100.108 58.248 100.108 59.208V62.9156C100.108 65.9185 102.551 68.3614 105.554 68.3614H107.524V76.0084H102.979C101.486 71.6979 97.3886 68.5929 92.5768 68.5929C87.765 68.5929 83.6671 71.6979 82.1745 76.0084H81.3376V62.9154C81.3376 61.9557 80.5595 61.1774 79.5996 61.1774C78.6398 61.1774 77.8615 61.9555 77.8615 62.9154V76.008H41.8021C40.3093 71.6974 36.2116 68.5925 31.3998 68.5925C26.588 68.5925 22.4901 71.6974 20.9974 76.008H11.0072C10.9433 76.008 10.8914 75.9562 10.8914 75.8922V72.0686H18.4227C19.3825 72.0686 20.1608 71.2905 20.1608 70.3305C20.1608 69.3706 19.3827 68.5925 18.4227 68.5925H1.73806C0.778301 68.5925 0 69.3706 0 70.3305C0 71.2905 0.778084 72.0686 1.73806 72.0686H7.41554V75.8922C7.41554 77.8729 9.02677 79.4841 11.0074 79.4841H20.3956C20.3952 79.5227 20.3926 79.5611 20.3926 79.5999C20.3926 85.6693 25.3305 90.6071 31.3998 90.6071C37.469 90.6071 42.407 85.6693 42.407 79.5999C42.407 79.5609 42.4044 79.5227 42.404 79.4841H81.5726C81.5722 79.5227 81.5696 79.5611 81.5696 79.5999C81.5696 85.6693 86.5076 90.6071 92.5768 90.6071C98.646 90.6071 103.584 85.6693 103.584 79.5999C103.584 79.5609 103.581 79.5227 103.581 79.4841H109.262C110.221 79.4841 111 78.706 111 77.7461V59.2076C111 54.6305 107.623 50.8277 103.23 50.1589ZM81.3383 31.2841H94.4311C96.5394 31.2841 98.2547 32.9994 98.2547 35.1078V35.2235H81.3383V31.2841ZM81.3383 50.0544V38.6994H96.7818L99.6205 50.0544H81.3383ZM31.3998 87.1316C27.247 87.1316 23.8685 83.7533 23.8685 79.6003C23.8685 75.4474 27.247 72.069 31.3998 72.069C35.5525 72.069 38.9311 75.4474 38.9311 79.6003C38.9311 83.7533 35.5525 87.1316 31.3998 87.1316ZM92.5773 87.1316C88.4245 87.1316 85.0459 83.7533 85.0459 79.6003C85.0459 75.4474 88.4245 72.069 92.5773 72.069C96.73 72.069 100.109 75.4474 100.109 79.6003C100.109 83.7533 96.73 87.1316 92.5773 87.1316ZM107.524 64.8852H105.554C104.468 64.8852 103.584 64.0016 103.584 62.9154V60.9456H107.524V64.8852H107.524Z" fill="white"/>
<path d="M31.4 76.0083C29.4193 76.0083 27.8081 77.6195 27.8081 79.6002C27.8081 81.5809 29.4193 83.1921 31.4 83.1921C33.3807 83.1921 34.9919 81.5809 34.9919 79.6002C34.9919 77.6195 33.3807 76.0083 31.4 76.0083Z" fill="white"/>
<path d="M92.5775 76.0083C90.5968 76.0083 88.9856 77.6195 88.9856 79.6002C88.9856 81.5809 90.5968 83.1921 92.5775 83.1921C94.5581 83.1921 96.1694 81.5809 96.1694 79.6002C96.1694 77.6195 94.5581 76.0083 92.5775 76.0083Z" fill="white"/>
<path d="M72.1842 68.5931H46.2302C45.2705 68.5931 44.4922 69.3712 44.4922 70.3312C44.4922 71.2912 45.2703 72.0693 46.2302 72.0693H72.1842C73.144 72.0693 73.9223 71.2912 73.9223 70.3312C73.9223 69.3712 73.1442 68.5931 72.1842 68.5931Z" fill="white"/>
<path d="M27.6917 61.1774H5.44533C4.48558 61.1774 3.70728 61.9554 3.70728 62.9154C3.70728 63.8754 4.48536 64.6535 5.44533 64.6535H27.6917C28.6515 64.6535 29.4298 63.8754 29.4298 62.9154C29.4298 61.9554 28.6515 61.1774 27.6917 61.1774Z" fill="white"/>
<path d="M60.4364 37.5859C59.7579 36.9074 58.6572 36.9074 57.9786 37.5861L42.5227 53.0418L34.4823 45.0014C33.8035 44.3227 32.7031 44.3227 32.0245 45.0014C31.3457 45.6802 31.3457 46.7805 32.0245 47.4593L41.2939 56.7286C41.6332 57.0681 42.078 57.2376 42.5227 57.2376C42.9673 57.2376 43.4124 57.0681 43.7515 56.7286L60.4362 40.044C61.115 39.365 61.115 38.2647 60.4364 37.5859Z" fill="white"/>
</svg>
