<svg width="17" height="11" viewBox="0 0 17 11" fill="none" xmlns="http://www.w3.org/2000/svg">
<path d="M15.3799 4.5121L14.9656 2.85315C15.0789 2.82906 15.1639 2.72846 15.1639 2.60794V2.34046C15.1639 1.75971 14.6918 1.28726 14.1117 1.28726H12.2244V0.735536C12.2244 0.44976 11.9922 0.217285 11.7067 0.217285H2.08663C1.80113 0.217285 1.56888 0.44976 1.56888 0.735536V5.28275C1.56888 5.42122 1.68103 5.53352 1.81941 5.53352C1.95775 5.53352 2.06994 5.42126 2.06994 5.28275V0.735536C2.06994 0.726309 2.07741 0.718833 2.08663 0.718833H11.7067C11.7159 0.718833 11.7233 0.726309 11.7233 0.735536V5.28281C11.7233 5.42129 11.8355 5.53358 11.9739 5.53358C12.1122 5.53358 12.2244 5.42132 12.2244 5.28281V4.99853H15.1797C15.1799 4.99853 15.1801 4.9986 15.1803 4.9986C15.1806 4.9986 15.1808 4.99857 15.181 4.99857C15.5447 4.99882 15.8535 5.23773 15.9595 5.56696H15.1805C15.0422 5.56696 14.93 5.67922 14.93 5.81773V6.35269C14.93 6.78595 15.2821 7.13842 15.715 7.13842H15.9989V8.24176H15.3438C15.1287 7.61982 14.538 7.17182 13.8444 7.17182C13.1508 7.17182 12.5601 7.61982 12.345 8.24176H12.2243V6.35266C12.2243 6.21418 12.1122 6.10188 11.9738 6.10188C11.8355 6.10188 11.7233 6.21415 11.7233 6.35266V8.2417H6.52553C6.31034 7.61976 5.71969 7.17176 5.02609 7.17176C4.3325 7.17176 3.74181 7.61976 3.52666 8.2417H2.08663C2.07741 8.2417 2.06994 8.23423 2.06994 8.225V7.67331H3.15553C3.29388 7.67331 3.40606 7.56104 3.40606 7.42254C3.40606 7.28403 3.29391 7.17176 3.15553 7.17176H0.750531C0.612188 7.17176 0.5 7.28403 0.5 7.42254C0.5 7.56104 0.612156 7.67331 0.750531 7.67331H1.56891V8.225C1.56891 8.51078 1.80116 8.74325 2.08666 8.74325H3.43991C3.43984 8.74882 3.43947 8.75435 3.43947 8.75995C3.43947 9.63568 4.15125 10.3481 5.02609 10.3481C5.90094 10.3481 6.61272 9.63568 6.61272 8.75995C6.61272 8.75432 6.61234 8.74882 6.61228 8.74325H12.2582C12.2582 8.74882 12.2578 8.75435 12.2578 8.75995C12.2578 9.63568 12.9696 10.3481 13.8444 10.3481C14.7193 10.3481 15.431 9.63568 15.431 8.75995C15.431 8.75432 15.4307 8.74882 15.4306 8.74325H16.2494C16.3878 8.74325 16.5 8.63098 16.5 8.49248V5.81767C16.5 5.15728 16.0132 4.60859 15.3799 4.5121ZM12.2244 1.78877H14.1117C14.4156 1.78877 14.6628 2.03626 14.6628 2.34046V2.35717H12.2244V1.78877ZM12.2244 4.49702V2.85868H14.4505L14.8597 4.49702H12.2244ZM5.02609 9.84666C4.4275 9.84666 3.9405 9.35922 3.9405 8.76002C3.9405 8.16081 4.4275 7.67337 5.02609 7.67337C5.62469 7.67337 6.11169 8.16081 6.11169 8.76002C6.11169 9.35922 5.62469 9.84666 5.02609 9.84666ZM13.8445 9.84666C13.2459 9.84666 12.7589 9.35922 12.7589 8.76002C12.7589 8.16081 13.2459 7.67337 13.8445 7.67337C14.4431 7.67337 14.9301 8.16081 14.9301 8.76002C14.9301 9.35922 14.4431 9.84666 13.8445 9.84666ZM15.999 6.63687H15.715C15.5585 6.63687 15.4311 6.50937 15.4311 6.35266V6.06844H15.9989V6.63687H15.999Z" fill="white"/>
<path d="M5.02605 8.24176C4.74055 8.24176 4.5083 8.47401 4.5083 8.75951C4.5083 9.04501 4.74055 9.27726 5.02605 9.27726C5.31155 9.27726 5.5438 9.04501 5.5438 8.75951C5.5438 8.47401 5.31155 8.24176 5.02605 8.24176Z" fill="white"/>
<path d="M13.8444 8.24176C13.5589 8.24176 13.3267 8.47401 13.3267 8.75951C13.3267 9.04501 13.5589 9.27726 13.8444 9.27726C14.1299 9.27726 14.3622 9.04501 14.3622 8.75951C14.3622 8.47401 14.1299 8.24176 13.8444 8.24176Z" fill="white"/>
<path d="M10.9047 7.17184H7.16362C7.02527 7.17184 6.91309 7.284 6.91309 7.42238C6.91309 7.56075 7.02524 7.67291 7.16362 7.67291H10.9047C11.0431 7.67291 11.1553 7.56075 11.1553 7.42238C11.1553 7.284 11.0431 7.17184 10.9047 7.17184Z" fill="white"/>
<path d="M4.49139 6.1019H1.28471C1.14637 6.1019 1.03418 6.21405 1.03418 6.35243C1.03418 6.4908 1.14634 6.60296 1.28471 6.60296H4.49139C4.62974 6.60296 4.74192 6.4908 4.74192 6.35243C4.74192 6.21405 4.62974 6.1019 4.49139 6.1019Z" fill="white"/>
<path d="M9.21177 2.69806C9.11396 2.60015 8.9553 2.60015 8.85749 2.69809L6.62961 4.92808L5.47063 3.768C5.37279 3.67006 5.21416 3.67006 5.11635 3.768C5.01851 3.86593 5.01851 4.02468 5.11635 4.12262L6.45248 5.46003C6.50139 5.50902 6.56551 5.53348 6.62961 5.53348C6.6937 5.53348 6.75786 5.50902 6.80673 5.46003L9.21174 3.05271C9.30958 2.95474 9.30958 2.796 9.21177 2.69806Z" fill="white"/>
</svg>
