<svg width="32" height="20" viewBox="0 0 32 20" fill="none" xmlns="http://www.w3.org/2000/svg">
<circle cx="16" cy="10" r="10" fill="#057DFF"/>
<path d="M20.3536 6.35355C20.5488 6.15829 20.5488 5.84171 20.3536 5.64645L17.1716 2.46447C16.9763 2.2692 16.6597 2.2692 16.4645 2.46447C16.2692 2.65973 16.2692 2.97631 16.4645 3.17157L19.2929 6L16.4645 8.82843C16.2692 9.02369 16.2692 9.34027 16.4645 9.53553C16.6597 9.7308 16.9763 9.7308 17.1716 9.53553L20.3536 6.35355ZM0 6.5H20V5.5H0V6.5Z" fill="white"/>
<path d="M11.6464 13.6464C11.4512 13.8417 11.4512 14.1583 11.6464 14.3536L14.8284 17.5355C15.0237 17.7308 15.3403 17.7308 15.5355 17.5355C15.7308 17.3403 15.7308 17.0237 15.5355 16.8284L12.7071 14L15.5355 11.1716C15.7308 10.9763 15.7308 10.6597 15.5355 10.4645C15.3403 10.2692 15.0237 10.2692 14.8284 10.4645L11.6464 13.6464ZM32 13.5L12 13.5V14.5L32 14.5V13.5Z" fill="white"/>
</svg>
