<svg width="20" height="20" viewBox="0 0 20 20" fill="none" xmlns="http://www.w3.org/2000/svg">
<path fill-rule="evenodd" clip-rule="evenodd" d="M18.9327 14.5C17.2859 17.7626 13.9042 20 10 20C4.47715 20 0 15.5228 0 10C0 8.76868 0.222545 7.58934 0.629608 6.5L12.7929 6.5L10.4645 8.82843C10.2692 9.02369 10.2692 9.34027 10.4645 9.53553C10.6597 9.7308 10.9763 9.7308 11.1716 9.53553L14.3536 6.35355C14.5488 6.15829 14.5488 5.84171 14.3536 5.64645L11.1716 2.46447C10.9763 2.2692 10.6597 2.2692 10.4645 2.46447C10.2692 2.65973 10.2692 2.97631 10.4645 3.17157L12.7929 5.5L1.06729 5.5C2.71411 2.23742 6.09576 0 10 0C15.5228 0 20 4.47715 20 10C20 11.2313 19.7775 12.4107 19.3704 13.5H7.20711L9.53553 11.1716C9.7308 10.9763 9.7308 10.6597 9.53553 10.4645C9.34027 10.2692 9.02369 10.2692 8.82843 10.4645L5.64645 13.6464C5.45118 13.8417 5.45118 14.1583 5.64645 14.3536L8.82843 17.5355C9.02369 17.7308 9.34027 17.7308 9.53553 17.5355C9.7308 17.3403 9.7308 17.0237 9.53553 16.8284L7.20711 14.5H18.9327Z" fill="white"/>
</svg>
