<svg width="30" height="30" viewBox="0 0 30 30" fill="none" xmlns="http://www.w3.org/2000/svg">
<path d="M9.30722 21.7409C9.09083 21.5018 8.87409 21.2628 8.66509 21.0166C8.53092 20.8585 8.56893 20.7218 8.7308 20.6034C9.44466 20.0816 10.157 19.5576 10.8679 19.0314C11.1027 18.8575 11.3248 18.6626 11.5683 18.5049C11.615 18.4809 11.6664 18.4687 11.7183 18.4692C11.7703 18.4697 11.8214 18.4829 11.8676 18.5078C12.0808 18.6655 12.2799 18.8434 12.4623 19.0392C12.481 19.0819 12.489 19.129 12.4855 19.1759C12.4821 19.2228 12.4673 19.268 12.4425 19.3072C12.0467 19.6923 11.647 20.075 11.2283 20.4324C10.7069 20.877 10.1668 21.2971 9.63387 21.7268C9.57917 21.7708 9.51897 21.8071 9.44999 21.8553C9.39948 21.8214 9.35173 21.7831 9.30722 21.7409ZM16.7862 11.1305C16.5554 10.9409 16.4704 10.7717 16.5894 10.4369C16.7112 10.0944 16.6961 9.69802 16.742 9.32543C16.7427 9.2338 16.7582 9.14297 16.7881 9.05691C16.8017 9.02972 16.8655 8.89301 16.9677 8.88703C17.0121 8.88771 17.0546 8.90588 17.0869 8.93798C17.2689 9.0959 17.2495 9.7729 17.2465 9.85612C17.2056 10.2378 17.1774 10.6216 17.1198 11.0004C17.0921 11.1817 17.0642 11.2613 17.0026 11.2611C16.9553 11.2611 16.8881 11.2143 16.7862 11.1305ZM16.9641 8.17702C16.8793 8.15527 16.8124 8.01366 16.8413 7.82891C16.8218 7.50092 16.7964 7.17312 16.7869 6.84477C16.8069 6.72873 16.9856 6.68583 17.0289 6.79532C17.0317 6.80242 17.0338 6.80964 17.035 6.81703C17.0867 7.14211 17.1179 7.47119 17.1483 7.79972C17.1588 7.9125 17.1775 8.04521 17.1105 8.11955C17.079 8.15567 17.0354 8.1774 16.989 8.18011C16.9806 8.18018 16.9722 8.17914 16.9641 8.17702ZM16.4391 4.69431C16.435 4.67591 16.4462 4.65757 16.4644 4.65274C16.4821 4.64806 16.5004 4.65747 16.5068 4.6746C16.6701 5.11396 16.7953 5.56799 16.8808 6.03112C16.8877 6.06823 16.8646 6.10421 16.8281 6.11373C16.7882 6.1241 16.7477 6.0993 16.7389 6.0591C16.639 5.60417 16.5391 5.14924 16.4391 4.69431ZM15.0735 2.93973C15.8004 4.31967 15.7813 7.97794 15.0556 8.82211C14.2994 8.11011 14.3027 4.43227 15.0735 2.93973ZM14.1811 0.0456895C14.2081 0.127278 14.232 0.210319 14.2623 0.290275C14.3694 0.572212 14.4745 0.85469 14.5882 1.13336C14.648 1.26566 14.6703 1.41335 14.6523 1.55867C14.6344 1.70399 14.577 1.84075 14.4871 1.95251C14.0696 2.56081 13.654 3.17508 13.2966 3.82308C12.5615 5.16059 12.028 6.61033 11.7151 8.12045C11.4419 9.33707 11.2987 10.582 11.288 11.8322C11.2897 12.2822 11.3232 12.7324 11.3155 13.1819C11.3038 13.3121 11.2441 13.4323 11.1491 13.5166C10.9431 13.6855 10.725 13.8374 10.4969 13.9711C9.15275 14.7845 7.83013 15.6424 6.45247 16.3874C5.05915 17.1407 3.61269 17.7858 2.18463 18.4668C1.54112 18.7738 0.884716 19.0505 0.236396 19.3458C-0.035215 19.4695 -0.0596397 19.548 0.0962037 19.7347C1.23459 21.0996 2.3735 22.4642 3.51292 23.8283C3.72157 24.078 3.8265 24.097 4.09725 23.9103C4.62791 23.544 5.15238 23.1678 5.67875 22.7949C6.14835 22.4623 6.61227 22.1206 7.09081 21.8029C7.1424 21.7725 7.20012 21.7554 7.2592 21.7532C7.31828 21.751 7.37702 21.7636 7.43054 21.79C7.69372 22.0299 7.92646 22.3069 8.17175 22.5689C8.29474 22.6997 8.30747 22.8012 8.14268 22.9194C7.45788 23.41 6.78273 23.9157 6.09829 24.4072C5.73878 24.6658 5.36895 24.9082 5.00101 25.1537C4.86512 25.2445 4.81455 25.341 4.93462 25.4864C5.1806 25.7841 5.42228 26.0856 5.66843 26.3831C6.06905 26.8678 6.47093 27.3513 6.87408 27.8338C7.42659 28.4957 7.97932 29.1575 8.53229 29.8189C8.57042 29.8713 8.62448 29.9081 8.68538 29.9234C8.753 29.9316 8.82117 29.9138 8.87735 29.8733C9.18956 29.6741 14.3453 25.2708 14.856 24.3887C14.8772 24.3523 14.9531 24.2143 15.0532 24.2149C15.1488 24.2154 15.2181 24.3445 15.2353 24.375C15.5462 24.9198 17.8107 26.7118 20.7971 29.7373C20.8774 29.8186 21.0862 30.0307 21.3236 29.9963C21.4457 29.9783 21.5529 29.8514 21.7629 29.6014C22.4379 28.798 23.1111 27.993 23.7824 27.1865C24.2482 26.6299 24.7119 26.0715 25.1836 25.5205C25.3338 25.345 25.3446 25.2287 25.137 25.0877C24.6242 24.7398 24.1137 24.3864 23.62 24.0091C22.5915 23.2224 21.5574 22.4418 20.5581 21.6149C19.7727 20.9759 19.0213 20.2918 18.3073 19.5657C17.5567 18.7885 16.8729 17.9379 16.1787 17.1019C15.5483 16.3294 15.0038 15.4834 14.5555 14.5807C14.227 13.945 13.9404 13.2864 13.6977 12.6093C13.2999 11.5174 13.0696 10.3658 13.0155 9.1976C12.9809 8.04846 13.1054 6.90015 13.3848 5.78881C13.4648 5.46046 13.5919 5.1448 13.6974 4.82334C13.7161 4.82733 13.735 4.8315 13.7538 4.83568C13.7622 4.87502 13.7652 4.91546 13.7625 4.9557C13.6442 5.51921 13.5093 6.07909 13.4054 6.64513C13.1662 8.043 13.241 9.4805 13.6237 10.8424C13.9416 12.0192 14.4376 13.1341 15.0927 14.1441C15.8286 15.2948 16.6942 16.3472 17.6705 17.2782C18.4534 18.0295 19.2902 18.7223 20.1341 19.3982C21.0623 20.1412 22.0223 20.8403 22.9748 21.5491C23.5708 21.9929 24.1787 22.4188 24.7809 22.8534C25.2691 23.206 25.7516 23.5676 26.2487 23.9055C26.2995 23.9318 26.3557 23.9445 26.4122 23.9426C26.4688 23.9406 26.5241 23.924 26.5731 23.8943C26.8156 23.6566 27.0451 23.4046 27.2603 23.1393C27.6857 22.6309 28.0989 22.1111 28.5239 21.6024C28.9839 21.0515 29.4528 20.5091 29.9152 19.9604C30.0409 19.8112 30.0344 19.6801 29.8447 19.5922C29.5338 19.448 29.2242 19.3006 28.9127 19.159C28.1047 18.7921 27.2882 18.4456 26.49 18.0567C25.6288 17.6371 24.7823 17.1837 23.9334 16.7362C23.3105 16.4079 22.677 16.0962 22.0791 15.7225C21.1445 15.1382 20.2366 14.5065 19.3159 13.8976C19.0169 13.7 18.8359 13.4699 18.8825 13.0495C18.9346 12.5374 18.9492 12.0219 18.9261 11.5074C18.9051 10.2947 18.7449 9.08915 18.4489 7.91704C18.0686 6.52459 17.6342 5.15951 16.9606 3.8967C16.5857 3.23571 16.1784 2.59573 15.7404 1.97936C15.4839 1.59843 15.4643 1.51394 15.6666 1.11052C15.8308 0.782903 15.9795 0.446572 16.1665 0.0473312C16.1105 0.0762818 16.057 0.110188 16.0065 0.148684C15.7713 0.393269 15.5302 0.632416 15.3078 0.889329C15.1693 1.04924 15.0817 1.09004 14.9575 0.872287C14.8463 0.69637 14.7211 0.530667 14.5834 0.376941C14.4766 0.246401 14.3591 0.125466 14.2461 0L14.1811 0.0456895Z" fill="#057DFF"/>
</svg>
