<svg width="12" height="9" viewBox="0 0 12 9" fill="none" xmlns="http://www.w3.org/2000/svg">
<path d="M1.43051 5.39533C1.32721 5.44384 1.28163 5.56598 1.32767 5.67038L1.79953 6.68431C1.82272 6.7348 1.86501 6.77411 1.91703 6.7935C1.93981 6.80178 1.96398 6.80606 1.98828 6.80606C2.01869 6.80632 2.0487 6.79981 2.07635 6.78726L5.64153 5.12042L5.31861 8.50005C5.31238 8.56657 5.33799 8.63198 5.3877 8.67642C5.54401 8.80593 5.7388 8.87968 5.94147 8.88632C5.99736 8.88626 6.05292 8.87922 6.1071 8.86542C6.39652 8.78982 6.62093 8.53167 6.77402 8.09077L8.17702 3.93234L10.9557 2.63494C11.7736 2.25294 12.1951 1.47836 11.912 0.873769C11.7514 0.557769 11.4437 0.342807 11.092 0.300669C10.7013 0.241637 10.3019 0.303167 9.947 0.477109L6.74039 1.98217L3.29277 0.632381C2.85859 0.468694 2.51473 0.472902 2.27357 0.647172C2.07123 0.813356 1.9561 1.06316 1.96103 1.32512C1.96313 1.39158 1.99656 1.45305 2.0512 1.49104L4.37271 3.08847L3.0432 3.71823L0.813832 3.15138C0.722479 3.1289 0.627383 3.17011 0.581083 3.25215L0.025414 4.2534C-0.00341692 4.30645 -0.00794843 4.36943 0.0130016 4.42609C0.0338203 4.48283 0.0780846 4.52772 0.134499 4.54942L1.78495 5.23171L1.43051 5.39533ZM2.39086 1.22021C2.40321 1.13146 2.44807 1.05067 2.51676 0.993477C2.63635 0.907361 2.85446 0.919983 3.14592 1.02911L6.21618 2.22777L4.81522 2.88271L2.39086 1.22021ZM0.503522 4.25136L0.868407 3.60273L3.01378 4.13586C3.06002 4.14756 3.10881 4.14316 3.15229 4.12337L10.1253 0.863317C10.4025 0.726451 10.7147 0.676622 11.0208 0.720535C11.2354 0.740322 11.4266 0.864303 11.5325 1.05218C11.7085 1.43011 11.3625 1.98217 10.7774 2.25505L8.36149 3.38869L8.50834 2.95403C8.54545 2.84221 8.48483 2.72139 8.37312 2.68431C8.26127 2.64724 8.14063 2.70791 8.10359 2.81973L6.37761 7.96054C6.27483 8.25241 6.1469 8.42669 6.00432 8.46435C5.91599 8.48138 5.82457 8.46402 5.74845 8.41617L6.16791 4.00781C6.17888 3.89191 6.09396 3.78903 5.97805 3.77805C5.86227 3.76694 5.75949 3.85207 5.74845 3.96797L5.6835 4.64178L2.08469 6.32111L1.78916 5.69135L2.38042 5.41433C2.45654 5.38074 2.5056 5.3054 2.5056 5.22224C2.5056 5.13902 2.45654 5.06368 2.38042 5.03016L0.503522 4.25136Z" fill="black"/>
</svg>
