<svg width="111" height="80" viewBox="0 0 111 80" fill="none" xmlns="http://www.w3.org/2000/svg">
<path d="M13.2322 47.6802C12.2767 48.1286 11.8551 49.2573 12.2809 50.222L16.6457 59.5918C16.8601 60.0584 17.2514 60.4217 17.7325 60.6009C17.9433 60.6774 18.1668 60.7169 18.3916 60.7169C18.6729 60.7193 18.9505 60.6592 19.2062 60.5431L52.1842 45.1397L49.1972 76.3712C49.1395 76.986 49.3764 77.5904 49.8363 78.0011C51.2821 79.1978 53.0839 79.8794 54.9586 79.9408C55.4756 79.9402 55.9895 79.8752 56.4907 79.7476C59.1679 79.049 61.2436 76.6634 62.6597 72.589L75.6374 34.1606L101.34 22.1713C108.906 18.6411 112.805 11.4831 110.186 5.89608C108.7 2.97589 105.854 0.98941 102.601 0.600011C98.9867 0.0544883 95.2926 0.623096 92.0097 2.23051L62.3486 16.1389L30.4581 3.66539C26.442 2.15275 23.2612 2.19163 21.0305 3.80207C19.1589 5.3378 18.0939 7.64625 18.1395 10.0671C18.1589 10.6813 18.4681 11.2493 18.9736 11.6004L40.4476 26.3623L28.1496 32.182L7.52794 26.9437C6.68293 26.7359 5.80329 27.1168 5.37501 27.8749L0.23508 37.1276C-0.0316065 37.6178 -0.073523 38.1998 0.120265 38.7234C0.312838 39.2477 0.722283 39.6626 1.24411 39.8631L16.5108 46.1682L13.2322 47.6802ZM22.1155 9.09753C22.2297 8.27743 22.6446 7.53083 23.28 7.00231C24.3863 6.20651 26.4037 6.32314 29.0998 7.33157L57.4997 18.4085L44.5408 24.4609L22.1155 9.09753ZM4.65757 37.1087L8.03276 31.1147L27.8775 36.0414C28.3052 36.1495 28.7565 36.1088 29.1587 35.926L93.6591 5.79949C96.2233 4.5347 99.1112 4.07423 101.942 4.48003C103.927 4.66288 105.696 5.8086 106.676 7.5448C108.304 11.0372 105.103 16.1389 99.6908 18.6606L77.3438 29.1367L78.7022 25.12C79.0454 24.0867 78.4847 22.9701 77.4513 22.6275C76.4168 22.2849 75.3008 22.8456 74.9582 23.8789L58.9929 71.3856C58.0422 74.0828 56.8588 75.6933 55.5399 76.0414C54.7229 76.1987 53.8773 76.0383 53.1732 75.5961L57.0532 34.858C57.1546 33.787 56.3692 32.8363 55.297 32.7348C54.226 32.6322 53.2752 33.4189 53.1732 34.4899L52.5724 40.7166L19.2834 56.2355L16.5497 50.4157L22.0189 47.8558C22.723 47.5454 23.1768 46.8492 23.1768 46.0807C23.1768 45.3116 22.723 44.6155 22.0189 44.3056L4.65757 37.1087Z" fill="white"/>
</svg>
