<svg width="16" height="16" viewBox="0 0 16 16" fill="none" xmlns="http://www.w3.org/2000/svg">
<g clip-path="url(#clip0)">
<path d="M10.7468 1.28603L3.4861 5.00337L0.600098 3.58337L7.73276 0.0613662C7.89276 -0.0199671 8.08476 -0.0199671 8.25276 0.0613662L10.7468 1.28603Z" fill="#057DFF"/>
<path d="M15.3921 3.58336L8.00407 7.24336L5.2374 5.88002L4.8374 5.67669L12.1061 1.96002L12.5061 2.16269L15.3921 3.58336Z" fill="#057DFF"/>
<path d="M7.412 8.298L7.404 16L0.328 12.3073C0.128 12.202 0 11.9907 0 11.7633V4.638L2.99867 6.11533V8.71267C2.99867 9.04533 3.27067 9.32133 3.59867 9.32133C3.92667 9.32133 4.19867 9.04533 4.19867 8.71267V6.716L4.59867 6.91067L7.412 8.298Z" fill="#057DFF"/>
<path d="M15.992 4.646L8.612 8.29L8.604 15.992L16 12.13L15.992 4.646Z" fill="#057DFF"/>
</g>
<defs>
<clipPath id="clip0">
<rect width="16" height="16" fill="white"/>
</clipPath>
</defs>
</svg>
