<svg width="16" height="16" viewBox="0 0 16 16" fill="none" xmlns="http://www.w3.org/2000/svg">
<g clip-path="url(#clip0)">
<path d="M15.7637 7.9L13.2546 2.88182C13.2207 2.77529 13.1289 2.69754 13.0182 2.68181C12.9273 2.68181 12.8364 2.79091 12.7818 2.79091H9.59998C9.46993 2.00173 8.79941 1.41505 7.99996 1.3909C7.20051 1.41502 6.52999 2.00173 6.39994 2.79091H3.21817C3.16364 2.79091 3.0727 2.68181 2.9818 2.68181C2.87392 2.69017 2.78117 2.76151 2.74543 2.86361L0.23637 7.88183C0.103882 7.907 0.00605541 8.01986 0 8.15457C0 9.64549 1.32728 10.8455 2.98184 10.8455C4.63639 10.8455 5.98184 9.64545 5.98184 8.17274C5.9842 8.02125 5.87643 7.89036 5.7273 7.86363L3.49091 3.33635H6.43638C6.53058 3.97729 7.00607 4.49596 7.63639 4.64543V11.1545H8.18183V4.64547C8.88558 4.572 9.45228 4.03513 9.56365 3.33639H12.5091L10.2728 7.86367C10.1265 7.88211 10.0171 8.00712 10.0182 8.15457C10.0182 9.62729 11.3637 10.8455 13.0182 10.8455C14.6728 10.8455 16.0001 9.64545 16.0001 8.15457C15.9924 8.024 15.8933 7.91723 15.7637 7.9ZM5.12729 7.88183H0.854543L2.98184 3.59092L5.12729 7.88183ZM10.8727 7.88183L13.0182 3.59092L15.1455 7.88183H10.8727Z" fill="#057DFF"/>
<path d="M11.091 13.7H4.90918V14.609H11.091V13.7Z" fill="#057DFF"/>
<path d="M7.99989 11.7C6.96351 11.7 6.10897 12.2454 6.01807 13.1545H9.98171C9.89077 12.2454 9.03623 11.7 7.99989 11.7Z" fill="#057DFF"/>
</g>
<defs>
<clipPath id="clip0">
<rect width="16" height="16" fill="white"/>
</clipPath>
</defs>
</svg>
